<?xml version="1.0" encoding="UTF-8"?>
<!-- Created with Inkscape (http://www.inkscape.org/) -->
<svg width="111.69mm" height="130.64mm" version="1.1" viewBox="0 0 111.69 130.64" xmlns="http://www.w3.org/2000/svg" xmlns:xlink="http://www.w3.org/1999/xlink">
 <defs>
  <linearGradient id="linearGradient12835" x1="-3035.6" x2="-3035.6" y1="586.07" y2="688.1" gradientTransform="matrix(.593 0 0 .593 1156.2 906.79)" gradientUnits="userSpaceOnUse">
   <stop stop-color="#ee6426" offset="0"/>
   <stop stop-color="#ffa600" offset="1"/>
  </linearGradient>
 </defs>
 <g transform="translate(-57.42 -50.457)">
  <g transform="matrix(2.1593 0 0 2.1593 1504.4 -2658)">
   <path d="m-670.13 1259.2s14.653 5.6023 26.263-4.8197c12.269 10.554 25.461 4.6878 25.461 4.6878 0 55.817-25.461 55.817-25.461 55.817s-26.263 0-26.263-55.685z" fill="url(#linearGradient12835)"/>
   <path d="m-646.68 1268.6-1.8531 3.4764c-0.6288 0.2146-1.2406 0.4762-1.8301 0.7826l-2.4332-1.5187-4.7243 4.7243 1.5185 2.4332c-0.3066 0.5896-0.5682 1.2015-0.7828 1.8304l-3.4764 1.8528v4.8395l3.4764 1.8529c0.2146 0.6289 0.4762 1.2407 0.7828 1.8303l-1.5185 2.4332 4.7241 4.7244 2.4334-1.5187c0.5895 0.3064 1.2013 0.568 1.8301 0.7826l1.8528 3.4764h4.8396l1.8531-3.4766c0.6287-0.2145 1.2404-0.4761 1.8298-0.7824l2.4335 1.5187 4.7243-4.7241-1.5186-2.4335c0.3065-0.5896 0.5682-1.2014 0.7828-1.8303l3.4765-1.8529v-4.8392l-3.4765-1.8531c-0.2145-0.6289-0.4761-1.2408-0.7827-1.8304l1.5185-2.4332-4.7241-4.7241-2.4334 1.5185c-0.5895-0.3063-1.2013-0.5679-1.8301-0.7824l-1.8528-3.4766zm2.4195 5.1087c5.4367-1e-4 10.892 5.4555 10.892 10.892s-5.4555 10.892-10.892 10.892c-5.4365-2e-4 -10.892-5.4557-10.892-10.892s5.4552-10.892 10.892-10.892z" fill="#fff" stroke="#fff" stroke-linecap="square" stroke-width="1.44"/>
  </g>
 </g>
</svg>
